<svg preserveAspectRatio="none" width="100%" height="100%" overflow="visible" style="display: block;" viewBox="0 0 160.001 88.5907" fill="none" xmlns="http://www.w3.org/2000/svg">
<g id="Group">
<path id="Vector" fill-rule="evenodd" clip-rule="evenodd" d="M42.3306 88.5906L47.6079 83.3132L37.6895 73.3947L28.7632 82.3211L35.0327 88.5906H17.1801L0 71.4105L8.92631 62.4842L18.8447 72.4026L27.7711 63.4763L17.8526 53.5579L53.5579 17.8526L63.4763 27.7711L72.4026 18.8447L62.4842 8.92631L71.4105 0L160.001 88.5906H142.148L141.832 88.2738L141.515 88.5906H42.3306ZM83.3132 47.6079L92.2395 38.6816L82.3211 28.7632L73.3947 37.6895L83.3132 47.6079ZM103.15 67.4448L112.076 58.5185L102.158 48.6001L93.2316 57.5264L103.15 67.4448ZM122.987 87.2817L131.913 78.3554L121.995 68.4369L113.068 77.3632L122.987 87.2817Z" fill="var(--fill-0, #FE3323)"/>
</g>
</svg>
